<svg width="49" height="47" viewBox="0 0 49 47" fill="none" xmlns="http://www.w3.org/2000/svg">
<path d="M37.2314 46.9262C36.7628 46.9249 36.2956 46.8737 35.8379 46.7735C27.1236 44.9768 19.0955 40.7643 12.6774 34.6207C6.39626 28.4636 2.03996 20.6243 0.13557 12.0512C-0.0889825 10.9828 -0.0338685 9.8747 0.295609 8.83361C0.625087 7.79253 1.21784 6.85347 2.01684 6.10678L7.59098 0.759561C7.87568 0.49121 8.21397 0.285713 8.58375 0.15648C8.95354 0.0272481 9.34651 -0.0228143 9.73702 0.00956063C10.1419 0.051662 10.5327 0.181662 10.8818 0.39042C11.2309 0.599177 11.5298 0.881623 11.7576 1.21789L18.7253 11.4818C18.9866 11.88 19.1127 12.3514 19.0851 12.8264C19.0575 13.3015 18.8777 13.7551 18.572 14.1207L15.0743 18.2873C16.4673 21.3602 18.4401 24.1374 20.8853 26.4679C23.3146 28.8829 26.1861 30.8112 29.344 32.1485L33.6779 28.7179C34.0419 28.4312 34.4849 28.2617 34.9479 28.2319C35.4108 28.2021 35.872 28.3135 36.2699 28.5512L46.7911 35.329C47.1521 35.5439 47.4597 35.8374 47.6908 36.1875C47.9219 36.5377 48.0705 36.9354 48.1255 37.3509C48.1804 37.7665 48.1403 38.189 48.0082 38.5869C47.8761 38.9848 47.6553 39.3477 47.3624 39.6485L41.9277 45.0096C41.3103 45.6218 40.5776 46.1064 39.7716 46.4353C38.9656 46.7643 38.1024 46.9311 37.2314 46.9262ZM9.51405 2.75956L3.93992 8.10678C3.49044 8.52421 3.15771 9.05106 2.97446 9.63551C2.79121 10.22 2.76374 10.8419 2.89477 11.4401C4.66556 19.4848 8.73607 26.8461 14.6144 32.6346C20.6542 38.4145 28.2092 42.3768 36.4093 44.0651C37.0299 44.1945 37.6731 44.1683 38.2812 43.9889C38.8892 43.8095 39.443 43.4826 39.8931 43.0373L45.3279 37.6762L35.169 31.1346L30.5146 34.829C30.3364 34.9696 30.1265 35.0646 29.903 35.1057C29.6795 35.1469 29.4494 35.1329 29.2326 35.0651C25.3679 33.6459 21.8656 31.3932 18.9762 28.4679C15.9875 25.6862 13.6677 22.2679 12.1896 18.4679C12.1271 18.2378 12.125 17.9956 12.1836 17.7646C12.2422 17.5335 12.3594 17.3213 12.5241 17.1485L16.2866 12.6623L9.51405 2.75956Z" fill="#558203"/>
</svg>
