<svg width="32" height="40" viewBox="0 0 32 40" fill="none" xmlns="http://www.w3.org/2000/svg">
<path d="M2.46154 12.5V37.5C2.46154 38.875 3.56923 40 4.92308 40H27.0769C28.4308 40 29.5385 38.875 29.5385 37.5V12.5H2.46154ZM9.84615 35H7.38462V17.5H9.84615V35ZM14.7692 35H12.3077V17.5H14.7692V35ZM19.6923 35H17.2308V17.5H19.6923V35ZM24.6154 35H22.1538V17.5H24.6154V35ZM30.1538 5H22.1538V1.875C22.1519 1.37833 21.9568 0.90256 21.611 0.551357C21.2652 0.200153 20.7967 0.00197487 20.3077 0L11.6923 0C11.2033 0.00197487 10.7348 0.200153 10.389 0.551357C10.0432 0.90256 9.8481 1.37833 9.84615 1.875V5H1.84615C1.35692 5.00132 0.888101 5.19929 0.542161 5.55063C0.196222 5.90198 0.00129943 6.37812 0 6.875V10H32V6.875C31.9987 6.37812 31.8038 5.90198 31.4578 5.55063C31.1119 5.19929 30.6431 5.00132 30.1538 5ZM19.6923 5H12.3077V2.5325H19.6923V5Z" fill="#ff4c4c"/>
</svg>
