<svg width="110" height="110" viewBox="0 0 110 110" fill="none" xmlns="http://www.w3.org/2000/svg">
<path d="M55 0C41.4585 0.00965418 28.3989 5.02618 18.3333 14.0846V4.58333C18.3333 3.36776 17.8504 2.20197 16.9909 1.34243C16.1314 0.482886 14.9656 0 13.75 0C12.5344 0 11.3686 0.482886 10.5091 1.34243C9.64955 2.20197 9.16667 3.36776 9.16667 4.58333V18.3333C9.16667 21.9801 10.6153 25.4774 13.1939 28.056C15.7726 30.6347 19.2699 32.0833 22.9167 32.0833H36.6667C37.8822 32.0833 39.048 31.6004 39.9076 30.7409C40.7671 29.8814 41.25 28.7156 41.25 27.5C41.25 26.2844 40.7671 25.1186 39.9076 24.2591C39.048 23.3995 37.8822 22.9167 36.6667 22.9167H22.9167C22.7621 22.8938 22.609 22.8616 22.4583 22.8204C29.927 15.2984 39.7747 10.6016 50.3207 9.5318C60.8667 8.462 71.457 11.0855 80.2841 16.9545C89.1111 22.8235 95.6276 31.5741 98.7213 41.7127C101.815 51.8513 101.294 62.7493 97.2472 72.5465C93.2005 82.3438 85.8789 90.4328 76.5323 95.433C67.1856 100.433 56.3933 102.034 45.9975 99.9635C35.6017 97.8925 26.2469 92.2777 19.5298 84.0775C12.8128 75.8773 9.15003 65.6001 9.16667 55C9.16667 53.7844 8.68378 52.6186 7.82424 51.7591C6.9647 50.8995 5.79891 50.4167 4.58333 50.4167C3.36776 50.4167 2.20197 50.8995 1.34243 51.7591C0.482886 52.6186 0 53.7844 0 55C0 65.878 3.22569 76.5116 9.26917 85.5564C15.3126 94.6011 23.9025 101.651 33.9524 105.813C44.0023 109.976 55.061 111.065 65.73 108.943C76.3989 106.821 86.199 101.583 93.8909 93.8909C101.583 86.199 106.821 76.3989 108.943 65.73C111.065 55.061 109.976 44.0023 105.813 33.9524C101.651 23.9025 94.6011 15.3126 85.5564 9.26917C76.5116 3.22569 65.878 0 55 0V0Z" fill="#558203"/>
<path d="M63.0553 58.3598L63.5436 60.5571C61.8509 60.7524 60.6464 60.8826 59.9303 60.9477C59.9954 62.4451 60.0768 64.3331 60.1744 66.6118C60.3046 68.8904 60.386 70.7621 60.4186 72.227C60.1256 73.2361 59.5722 73.7407 58.7584 73.7407C58.1725 73.7407 57.6028 73.4965 57.0494 73.0082C56.4961 72.52 56.1543 71.934 56.024 71.2504C56.0566 70.2413 56.1705 66.921 56.3658 61.2895C55.3242 61.3546 54.4941 61.3871 53.8756 61.3871C52.899 61.3871 51.3854 61.3383 49.3346 61.2407C47.3164 61.1105 45.8352 61.0453 44.8912 61.0453C44.4355 61.0453 43.817 61.0779 43.0358 61.143C43.1009 60.3618 43.1334 59.8246 43.1334 59.5317C43.1334 59.3364 43.1171 59.0271 43.0846 58.6039C43.0846 58.1482 43.0846 57.8064 43.0846 57.5786C48.5208 48.4314 52.9153 41.6443 56.2682 37.2172C57.2773 37.2172 58.6608 37.4288 60.4186 37.852C60.3535 39.3819 60.2558 42.7023 60.1256 47.8129C60.028 52.8911 59.9303 56.3253 59.8326 58.1157C61.2649 58.1808 62.3392 58.2621 63.0553 58.3598ZM46.649 57.725L56.4635 58.018C56.5612 56.1625 56.6588 53.4119 56.7565 49.7661C56.8541 46.1202 56.9355 43.3696 57.0006 41.5141C55.666 42.8813 53.7291 45.7459 51.1901 50.1078C48.6836 54.4373 47.1699 56.9763 46.649 57.725Z" fill="#558203"/>
</svg>
