<svg width="50" height="50" viewBox="0 0 50 50" fill="none" xmlns="http://www.w3.org/2000/svg">
<path d="M25 25C27.4864 25 29.871 24.0123 31.6291 22.2541C33.3873 20.496 34.375 18.1114 34.375 15.625C34.375 13.1386 33.3873 10.754 31.6291 8.99587C29.871 7.23772 27.4864 6.25 25 6.25C22.5136 6.25 20.129 7.23772 18.3709 8.99587C16.6127 10.754 15.625 13.1386 15.625 15.625C15.625 18.1114 16.6127 20.496 18.3709 22.2541C20.129 24.0123 22.5136 25 25 25V25ZM25 28.125C21.6848 28.125 18.5054 26.808 16.1612 24.4638C13.817 22.1196 12.5 18.9402 12.5 15.625C12.5 12.3098 13.817 9.13037 16.1612 6.78617C18.5054 4.44196 21.6848 3.125 25 3.125C28.3152 3.125 31.4946 4.44196 33.8388 6.78617C36.183 9.13037 37.5 12.3098 37.5 15.625C37.5 18.9402 36.183 22.1196 33.8388 24.4638C31.4946 26.808 28.3152 28.125 25 28.125Z" fill="#558203"/>
<path d="M25 25C25.4144 25 25.8118 25.1646 26.1049 25.4576C26.3979 25.7507 26.5625 26.1481 26.5625 26.5625V39.0625C26.5625 39.4769 26.3979 39.8743 26.1049 40.1674C25.8118 40.4604 25.4144 40.625 25 40.625C24.5856 40.625 24.1882 40.4604 23.8951 40.1674C23.6021 39.8743 23.4375 39.4769 23.4375 39.0625V26.5625C23.4375 26.1481 23.6021 25.7507 23.8951 25.4576C24.1882 25.1646 24.5856 25 25 25V25Z" fill="#558203"/>
<path d="M18.75 31.6937V34.8656C13.1719 35.7593 9.375 37.6906 9.375 39.0625C9.375 40.9031 16.2063 43.75 25 43.75C33.7937 43.75 40.625 40.9031 40.625 39.0625C40.625 37.6875 36.8281 35.7593 31.25 34.8656V31.6937C38.5312 32.7656 43.75 35.6625 43.75 39.0625C43.75 43.375 35.3562 46.875 25 46.875C14.6438 46.875 6.25 43.375 6.25 39.0625C6.25 35.6594 11.4688 32.7656 18.75 31.6937Z" fill="#558203"/>
</svg>
