<svg width="670" height="122" viewBox="0 0 670 122" fill="none" xmlns="http://www.w3.org/2000/svg">
<path d="M45.0051 97V27H103.905V97H96.6051V31.4L98.5051 33.4H50.4051L52.3051 31.4V97H45.0051ZM127.525 97V27H153.725C159.658 27 164.758 27.9667 169.025 29.9C173.291 31.7667 176.558 34.5 178.825 38.1C181.158 41.6333 182.325 45.9333 182.325 51C182.325 55.9333 181.158 60.2 178.825 63.8C176.558 67.3333 173.291 70.0667 169.025 72C164.758 73.9333 159.658 74.9 153.725 74.9H131.625L134.925 71.4V97H127.525ZM134.925 72L131.625 68.4H153.525C160.525 68.4 165.825 66.9 169.425 63.9C173.091 60.8333 174.925 56.5333 174.925 51C174.925 45.4 173.091 41.0667 169.425 38C165.825 34.9333 160.525 33.4 153.525 33.4H131.625L134.925 29.9V72ZM276.939 97V27H306.039C313.439 27 319.239 28.5333 323.439 31.6C327.705 34.6 329.839 39.0333 329.839 44.9C329.839 50.7 327.805 55.1 323.739 58.1C319.672 61.0333 314.339 62.5 307.739 62.5L309.439 60C317.239 60 323.172 61.5333 327.239 64.6C331.305 67.6667 333.339 72.1667 333.339 78.1C333.339 84.1 331.205 88.7667 326.939 92.1C322.739 95.3667 316.405 97 307.939 97H276.939ZM284.239 91.1H307.939C313.872 91.1 318.372 90 321.439 87.8C324.505 85.6 326.039 82.2 326.039 77.6C326.039 73.0667 324.505 69.7333 321.439 67.6C318.372 65.4667 313.872 64.4 307.939 64.4H284.239V91.1ZM284.239 58.7H305.639C311.039 58.7 315.172 57.6333 318.039 55.5C320.972 53.3 322.439 50.0667 322.439 45.8C322.439 41.5333 320.972 38.3333 318.039 36.2C315.172 34 311.039 32.9 305.639 32.9H284.239V58.7ZM351.841 97V27H359.141V85L403.941 27H410.641V97H403.341V39.1L358.541 97H351.841ZM423.963 97L455.963 27H463.263L495.263 97H487.463L458.063 31.3H461.063L431.663 97H423.963ZM436.563 78.3L438.763 72.3H479.463L481.663 78.3H436.563ZM559.877 27H567.177V97H559.877V27ZM516.077 97H508.677V27H516.077V97ZM560.577 64.7H515.277V58.2H560.577V64.7ZM604.706 97V31.4L606.706 33.4H580.106V27H636.606V33.4H610.106L612.006 31.4V97H604.706Z" fill="black"/>
<path d="M213.732 45.881C213.962 46.5724 213.908 47.3268 213.582 47.9785C213.256 48.6303 212.685 49.126 211.994 49.357C211.15 49.6239 210.366 50.0554 209.69 50.6265C209.013 51.1976 208.456 51.897 208.05 52.6845C207.033 54.604 206.334 57.761 206.978 62.9145C207.046 63.6271 206.833 64.338 206.385 64.8963C205.937 65.4546 205.289 65.8162 204.579 65.9043C203.868 65.9924 203.152 65.8 202.581 65.368C202.01 64.936 201.63 64.2985 201.522 63.591C200.79 57.7445 201.467 53.339 203.199 50.0995C204.959 46.7995 207.638 45.012 210.256 44.143C210.947 43.913 211.702 43.9669 212.354 44.2928C213.005 44.6187 213.501 45.1899 213.732 45.881ZM240.869 16.357C241.535 16.1066 242.078 15.608 242.384 14.9659C242.689 14.3238 242.735 13.5881 242.51 12.9133C242.285 12.2386 241.807 11.6772 241.177 11.3471C240.547 11.017 239.814 10.9438 239.131 11.143C233.972 12.859 230.754 17.094 228.868 21.6315C228.612 22.2447 228.377 22.8666 228.164 23.496C227.135 21.5446 225.819 19.7591 224.259 18.1995C222.145 16.0809 219.62 14.4171 216.839 13.3105C214.058 12.2039 211.081 11.6777 208.089 11.7645C206.557 11.806 205.099 12.4329 204.014 13.5162C202.93 14.5994 202.302 16.0569 202.259 17.589C202.172 20.6208 202.715 23.6377 203.853 26.4492C204.991 29.2607 206.699 31.8059 208.87 33.924C204.25 34.9247 200.075 37.3863 196.963 40.9443C193.85 44.5024 191.966 48.9679 191.589 53.68L191.556 54.087C190.83 63.1465 192.76 72.2213 197.111 80.201L199.085 83.82C199.14 83.9135 199.195 84.007 199.261 84.095L204.761 91.806C206.008 93.5517 207.62 95.0049 209.485 96.0645C211.35 97.1241 213.424 97.7647 215.562 97.9416C217.699 98.1185 219.85 97.8276 221.864 97.089C223.878 96.3505 225.707 95.182 227.223 93.665C227.456 93.432 227.733 93.2471 228.037 93.1211C228.342 92.995 228.668 92.9301 228.997 92.9301C229.327 92.9301 229.653 92.995 229.957 93.1211C230.262 93.2471 230.538 93.432 230.771 93.665C232.288 95.182 234.116 96.3505 236.13 97.089C238.144 97.8276 240.295 98.1185 242.433 97.9416C244.571 97.7647 246.644 97.1241 248.509 96.0645C250.375 95.0049 251.986 93.5517 253.233 91.806L258.733 84.1005C258.799 84.0106 258.86 83.917 258.914 83.82L260.883 80.201C265.236 72.2219 267.168 63.1471 266.444 54.087L266.411 53.68C266.167 50.6433 265.296 47.6903 263.852 45.0081C262.407 42.3258 260.422 39.9728 258.021 38.098C255.619 36.2232 252.855 34.8675 249.903 34.1168C246.95 33.3661 243.874 33.2367 240.869 33.737L231.75 35.255C231.805 31.5095 232.465 27.2965 233.939 23.7435C235.484 20.031 237.772 17.391 240.869 16.357V16.357ZM221.949 34.54L221.102 34.397C217.874 33.7728 214.908 32.194 212.588 29.865C210.998 28.2802 209.749 26.3866 208.919 24.3009C208.088 22.2152 207.693 19.9815 207.759 17.7375C207.76 17.6101 207.812 17.4884 207.903 17.3988C207.993 17.3092 208.116 17.259 208.243 17.259C210.486 17.1942 212.719 17.5892 214.803 18.4197C216.888 19.2502 218.781 20.4986 220.365 22.088C223.703 25.4265 225.315 29.832 225.194 34.2155C225.193 34.3419 225.142 34.4628 225.052 34.5522C224.963 34.6417 224.842 34.6925 224.715 34.694C223.791 34.7198 222.865 34.6683 221.949 34.54ZM220.145 39.8145L221.102 39.974L225.381 40.689C227.777 41.0886 230.223 41.0886 232.619 40.689L241.771 39.16C244.025 38.784 246.333 38.8804 248.548 39.4432C250.764 40.006 252.838 41.0229 254.639 42.4293C256.441 43.8358 257.93 45.6012 259.014 47.6137C260.097 49.6261 260.751 51.8417 260.933 54.12L260.96 54.527C261.6 62.5222 259.896 70.5306 256.054 77.572L254.162 81.037L248.756 88.605C247.974 89.7009 246.963 90.6133 245.792 91.2787C244.622 91.9442 243.321 92.3467 241.979 92.4582C240.638 92.5696 239.288 92.3875 238.024 91.9244C236.76 91.4613 235.612 90.7283 234.659 89.7765C233.158 88.2748 231.121 87.4312 228.997 87.4312C226.873 87.4312 224.837 88.2748 223.335 89.7765C222.383 90.7283 221.235 91.4613 219.971 91.9244C218.707 92.3875 217.357 92.5696 216.015 92.4582C214.674 92.3467 213.372 91.9442 212.202 91.2787C211.032 90.6133 210.02 89.7009 209.238 88.605L203.832 81.037L201.94 77.572C198.099 70.5306 196.394 62.5222 197.034 54.527L197.067 54.12C197.249 51.8417 197.903 49.6261 198.986 47.6137C200.069 45.6012 201.559 43.8358 203.361 42.4293C205.162 41.0229 207.236 40.006 209.451 39.4432C211.667 38.8804 213.975 38.784 216.229 39.16L220.145 39.8145V39.8145Z" fill="#46B14B"/>
</svg>
