<svg width="670" height="122" viewBox="0 0 670 122" fill="none" xmlns="http://www.w3.org/2000/svg">
<path d="M103.856 27V97H96.5563V33.4H52.2563V97H44.9563V27H103.856ZM153.676 27C162.609 27 169.609 29.1333 174.676 33.4C179.742 37.6667 182.276 43.5333 182.276 51C182.276 58.4667 179.742 64.3333 174.676 68.6C169.609 72.8 162.609 74.9 153.676 74.9H134.876V97H127.476V27H153.676ZM153.476 68.4C160.409 68.4 165.709 66.9 169.376 63.9C173.042 60.8333 174.876 56.5333 174.876 51C174.876 45.3333 173.042 41 169.376 38C165.709 34.9333 160.409 33.4 153.476 33.4H134.876V68.4H153.476ZM318.488 60.9C323.354 61.9 327.054 63.8667 329.588 66.8C332.121 69.6667 333.388 73.4333 333.388 78.1C333.388 84.1667 331.221 88.8333 326.888 92.1C322.621 95.3667 316.321 97 307.988 97H276.988V27H306.088C313.554 27 319.388 28.5333 323.588 31.6C327.788 34.6667 329.888 39.1 329.888 44.9C329.888 48.8333 328.888 52.1667 326.888 54.9C324.888 57.5667 322.088 59.5667 318.488 60.9ZM284.288 58.7H305.688C311.088 58.7 315.221 57.6 318.088 55.4C321.021 53.2 322.488 50 322.488 45.8C322.488 41.6 321.021 38.4 318.088 36.2C315.221 34 311.088 32.9 305.688 32.9H284.288V58.7ZM307.988 91.1C320.054 91.1 326.088 86.6 326.088 77.6C326.088 68.8 320.054 64.4 307.988 64.4H284.288V91.1H307.988ZM351.89 27H359.19V85L403.99 27H410.69V97H403.39V39.1L358.59 97H351.89V27ZM479.112 78.3H440.112L431.712 97H424.012L456.012 27H463.312L495.312 97H487.512L479.112 78.3ZM476.412 72.3L459.612 34.7L442.812 72.3H476.412ZM567.226 27V97H559.926V64.7H516.126V97H508.726V27H516.126V58.2H559.926V27H567.226ZM636.655 33.4H612.055V97H604.755V33.4H580.155V27H636.655V33.4Z" fill="black"/>
<path d="M213.732 45.881C213.962 46.5724 213.908 47.3268 213.582 47.9785C213.256 48.6303 212.685 49.126 211.994 49.357C211.15 49.6239 210.366 50.0554 209.69 50.6265C209.013 51.1976 208.456 51.897 208.05 52.6845C207.033 54.604 206.334 57.761 206.978 62.9145C207.046 63.6271 206.833 64.338 206.385 64.8963C205.937 65.4546 205.289 65.8162 204.579 65.9043C203.868 65.9924 203.152 65.8 202.581 65.368C202.01 64.936 201.63 64.2985 201.522 63.591C200.79 57.7445 201.467 53.339 203.199 50.0995C204.959 46.7995 207.638 45.012 210.256 44.143C210.947 43.913 211.702 43.9669 212.354 44.2928C213.005 44.6187 213.501 45.1899 213.732 45.881ZM240.869 16.357C241.535 16.1066 242.078 15.608 242.384 14.9659C242.689 14.3238 242.735 13.5881 242.51 12.9133C242.285 12.2386 241.807 11.6772 241.177 11.3471C240.547 11.017 239.814 10.9438 239.131 11.143C233.972 12.859 230.754 17.094 228.868 21.6315C228.612 22.2447 228.377 22.8666 228.164 23.496C227.135 21.5446 225.819 19.7591 224.259 18.1995C222.145 16.0809 219.62 14.4171 216.839 13.3105C214.058 12.2039 211.081 11.6777 208.089 11.7645C206.557 11.806 205.099 12.4329 204.014 13.5162C202.93 14.5994 202.302 16.0569 202.259 17.589C202.172 20.6208 202.715 23.6377 203.853 26.4492C204.991 29.2607 206.699 31.8059 208.87 33.924C204.25 34.9247 200.075 37.3863 196.963 40.9443C193.85 44.5024 191.966 48.9679 191.589 53.68L191.556 54.087C190.83 63.1465 192.76 72.2213 197.111 80.201L199.085 83.82C199.14 83.9135 199.195 84.007 199.261 84.095L204.761 91.806C206.008 93.5517 207.62 95.0049 209.485 96.0645C211.35 97.1241 213.424 97.7647 215.562 97.9416C217.699 98.1185 219.85 97.8276 221.864 97.089C223.878 96.3505 225.707 95.182 227.223 93.665C227.456 93.432 227.733 93.2471 228.037 93.121C228.342 92.995 228.668 92.9301 228.997 92.9301C229.327 92.9301 229.653 92.995 229.957 93.121C230.262 93.2471 230.538 93.432 230.771 93.665C232.288 95.182 234.116 96.3505 236.13 97.089C238.144 97.8276 240.295 98.1185 242.433 97.9416C244.571 97.7647 246.644 97.1241 248.509 96.0645C250.375 95.0049 251.986 93.5517 253.233 91.806L258.733 84.1005C258.799 84.0106 258.86 83.917 258.914 83.82L260.883 80.201C265.236 72.2219 267.168 63.1471 266.444 54.087L266.411 53.68C266.167 50.6433 265.296 47.6903 263.852 45.0081C262.407 42.3258 260.422 39.9728 258.021 38.098C255.619 36.2232 252.855 34.8675 249.903 34.1168C246.95 33.3661 243.874 33.2367 240.869 33.737L231.75 35.255C231.805 31.5095 232.465 27.2965 233.939 23.7435C235.484 20.031 237.772 17.391 240.869 16.357ZM221.949 34.54L221.102 34.397C217.874 33.7728 214.908 32.194 212.588 29.865C210.998 28.2802 209.749 26.3866 208.919 24.3009C208.088 22.2152 207.693 19.9815 207.759 17.7375C207.76 17.6101 207.812 17.4884 207.903 17.3988C207.993 17.3092 208.116 17.259 208.243 17.259C210.486 17.1942 212.719 17.5892 214.803 18.4197C216.888 19.2502 218.781 20.4986 220.365 22.088C223.703 25.4265 225.315 29.832 225.194 34.2155C225.193 34.3419 225.142 34.4628 225.052 34.5522C224.963 34.6417 224.842 34.6925 224.715 34.694C223.791 34.7198 222.865 34.6683 221.949 34.54ZM220.145 39.8145L221.102 39.974L225.381 40.689C227.777 41.0886 230.223 41.0886 232.619 40.689L241.771 39.16C244.025 38.784 246.333 38.8804 248.548 39.4432C250.764 40.006 252.838 41.0229 254.639 42.4293C256.441 43.8358 257.93 45.6012 259.014 47.6137C260.097 49.6261 260.751 51.8417 260.933 54.12L260.96 54.527C261.6 62.5222 259.896 70.5306 256.054 77.572L254.162 81.037L248.756 88.605C247.974 89.7009 246.963 90.6133 245.792 91.2787C244.622 91.9442 243.321 92.3466 241.979 92.4582C240.638 92.5696 239.288 92.3875 238.024 91.9244C236.76 91.4613 235.612 90.7283 234.659 89.7765C233.158 88.2748 231.121 87.4312 228.997 87.4312C226.873 87.4312 224.837 88.2748 223.335 89.7765C222.383 90.7283 221.235 91.4613 219.971 91.9244C218.707 92.3875 217.357 92.5696 216.015 92.4582C214.674 92.3466 213.372 91.9442 212.202 91.2787C211.032 90.6133 210.02 89.7009 209.238 88.605L203.832 81.037L201.94 77.572C198.099 70.5306 196.394 62.5222 197.034 54.527L197.067 54.12C197.249 51.8417 197.903 49.6261 198.986 47.6137C200.069 45.6012 201.559 43.8358 203.361 42.4293C205.162 41.0229 207.236 40.006 209.451 39.4432C211.667 38.8804 213.975 38.784 216.229 39.16L220.145 39.8145Z" fill="#46B14B"/>
<line y1="120.5" x2="670" y2="120.5" stroke="black" stroke-width="3"/>
</svg>
