<svg width="100" height="92" viewBox="0 0 100 92" fill="none" xmlns="http://www.w3.org/2000/svg">
<path d="M79.1667 0.166687H20.8333C15.31 0.173303 10.0148 2.37036 6.10925 6.27594C2.20367 10.1815 0.00661607 15.4767 0 21L0 71C0.00661607 76.5233 2.20367 81.8186 6.10925 85.7241C10.0148 89.6297 15.31 91.8268 20.8333 91.8334H79.1667C84.69 91.8268 89.9852 89.6297 93.8907 85.7241C97.7963 81.8186 99.9934 76.5233 100 71V21C99.9934 15.4767 97.7963 10.1815 93.8907 6.27594C89.9852 2.37036 84.69 0.173303 79.1667 0.166687ZM20.8333 8.50002H79.1667C81.6616 8.50493 84.098 9.25633 86.1623 10.6575C88.2266 12.0587 89.8244 14.0456 90.75 16.3625L58.8417 48.275C56.4935 50.6138 53.3142 51.927 50 51.927C46.6858 51.927 43.5065 50.6138 41.1583 48.275L9.25 16.3625C10.1756 14.0456 11.7734 12.0587 13.8377 10.6575C15.902 9.25633 18.3384 8.50493 20.8333 8.50002ZM79.1667 83.5H20.8333C17.5181 83.5 14.3387 82.1831 11.9945 79.8389C9.65029 77.4947 8.33333 74.3152 8.33333 71V27.25L35.2667 54.1667C39.1776 58.0678 44.4761 60.2585 50 60.2585C55.5239 60.2585 60.8224 58.0678 64.7333 54.1667L91.6667 27.25V71C91.6667 74.3152 90.3497 77.4947 88.0055 79.8389C85.6613 82.1831 82.4819 83.5 79.1667 83.5Z" fill="#558203"/>
</svg>
