<svg width="100" height="100" viewBox="0 0 100 100" fill="none" xmlns="http://www.w3.org/2000/svg">
<path d="M74.0279 100C40.1397 101.146 -20.9099 40.6042 7.43515 7.77919L12.2281 3.61253C14.6542 1.2678 17.9063 -0.0275663 21.2806 0.00674451C24.6549 0.0410553 27.88 1.40228 30.2579 3.79586C30.3864 3.92671 30.5062 4.0659 30.6163 4.21253L38.1183 13.9584C40.3982 16.3702 41.665 19.5649 41.6572 22.8833C41.6495 26.2017 40.3678 29.3906 38.0767 31.7917L33.2504 37.8584C35.9224 44.3462 39.8497 50.2425 44.8069 55.2091C49.7641 60.1757 55.6535 64.1147 62.1372 66.8L68.2389 61.9459C70.6719 59.7119 73.8538 58.4702 77.1572 58.4656C80.4607 58.461 83.646 59.6937 86.0853 61.9209L95.8379 69.4209C95.9836 69.5307 96.1227 69.649 96.2547 69.775C98.6598 72.2017 100.009 75.4797 100.009 78.8959C100.009 82.3121 98.6598 85.59 96.2547 88.0167L92.4578 92.3917C90.0495 94.8257 87.178 96.7529 84.0127 98.0596C80.8474 99.3663 77.4524 100.026 74.0279 100ZM21.1346 8.33336C20.5357 8.3329 19.9425 8.45041 19.389 8.67919C18.8355 8.90796 18.3325 9.24352 17.9088 9.66669L13.1117 13.8334C-10.4196 42.1167 61.5871 110.096 86.3562 86.7L90.1572 82.3209C90.609 81.9188 90.9768 81.4314 91.2394 80.8866C91.5019 80.3418 91.6541 79.7505 91.687 79.1467C91.7199 78.5429 91.633 77.9385 91.4313 77.3684C91.2295 76.7983 90.9169 76.2738 90.5115 75.825L80.813 68.3792C80.6645 68.2699 80.5251 68.1487 80.3963 68.0167C79.5267 67.1883 78.3716 66.7262 77.1704 66.7262C75.9693 66.7262 74.8141 67.1883 73.9445 68.0167C73.8339 68.1287 73.717 68.2344 73.5945 68.3334L65.4339 74.8334C64.8675 75.2842 64.1933 75.5796 63.4778 75.6907C62.7623 75.8018 62.0302 75.7246 61.3537 75.4667C52.952 72.3376 45.3211 67.4398 38.9781 61.1049C32.6352 54.7701 27.7282 47.1463 24.5897 38.75C24.3119 38.0641 24.2218 37.3165 24.3287 36.5842C24.4357 35.8519 24.7358 35.1613 25.1982 34.5834L31.6749 26.4334C31.7713 26.3099 31.8757 26.193 31.9875 26.0834C32.8389 25.225 33.3165 24.0651 33.3165 22.8563C33.3165 21.6475 32.8389 20.4876 31.9875 19.6292C31.8576 19.4996 31.7378 19.3603 31.6291 19.2125L24.198 9.52919C23.3583 8.77073 22.2663 8.35187 21.1346 8.35419V8.33336ZM94.0416 52.4C114.839 21.7959 78.204 -14.7916 47.625 5.99586C47.1639 6.30366 46.7688 6.70036 46.463 7.16272C46.1571 7.62508 45.9466 8.14381 45.8438 8.68852C45.741 9.23324 45.7479 9.79298 45.8642 10.335C45.9805 10.877 46.2038 11.3903 46.521 11.845C46.8382 12.2996 47.243 12.6864 47.7116 12.9827C48.1802 13.279 48.7033 13.4788 49.2501 13.5705C49.797 13.6621 50.3566 13.6438 50.8963 13.5165C51.4359 13.3892 51.9448 13.1555 52.393 12.8292C75.2074 -2.83331 102.865 24.8459 87.2064 47.6375C86.8729 48.0852 86.6328 48.5953 86.5003 49.1376C86.3679 49.6799 86.3457 50.2432 86.4352 50.7942C86.5247 51.3451 86.7241 51.8725 87.0214 52.345C87.3187 52.8175 87.708 53.2254 88.166 53.5446C88.6241 53.8637 89.1417 54.0876 89.688 54.203C90.2343 54.3183 90.7982 54.3227 91.3462 54.216C91.8942 54.1092 92.4152 53.8935 92.8783 53.5815C93.3413 53.2696 93.7369 52.8678 94.0416 52.4ZM77.9623 44.6292C78.7436 43.8478 79.1826 42.7882 79.1826 41.6834C79.1826 40.5785 78.7436 39.5189 77.9623 38.7375L70.8521 31.625V20.8334C70.8521 19.7283 70.413 18.6685 69.6313 17.8871C68.8497 17.1057 67.7896 16.6667 66.6843 16.6667C65.5789 16.6667 64.5188 17.1057 63.7372 17.8871C62.9556 18.6685 62.5165 19.7283 62.5165 20.8334V33.3334C62.5167 34.4383 62.956 35.498 63.7377 36.2792L72.0732 44.6125C72.8548 45.3937 73.9147 45.8325 75.0198 45.8325C76.125 45.8325 77.1849 45.3937 77.9665 44.6125L77.9623 44.6292Z" fill="#558203"/>
</svg>
