<svg width="21" height="20" viewBox="0 0 21 20" fill="none" xmlns="http://www.w3.org/2000/svg">
<path d="M19.9232 18.5774L14.9902 13.6033C16.3345 11.9454 16.9954 9.83002 16.8363 7.69458C16.6772 5.55914 15.7102 3.56705 14.1353 2.13038C12.5604 0.693699 10.4981 -0.0776494 8.37499 -0.0241229C6.25189 0.0294036 4.23041 0.90371 2.72868 2.41795C1.22695 3.93219 0.359872 5.97052 0.306788 8.11131C0.253704 10.2521 1.01868 12.3316 2.44348 13.9196C3.86828 15.5076 5.8439 16.4827 7.9617 16.6432C10.0795 16.8036 12.1774 16.1371 13.8216 14.7816L18.7546 19.7558C18.9105 19.9076 19.1193 19.9916 19.336 19.9897C19.5526 19.9878 19.7599 19.9001 19.9132 19.7456C20.0664 19.5911 20.1533 19.3821 20.1552 19.1636C20.1571 18.9451 20.0738 18.7346 19.9232 18.5774ZM8.59512 14.9999C7.28747 14.9999 6.00919 14.609 4.92193 13.8764C3.83466 13.1439 2.98724 12.1027 2.48682 10.8845C1.98641 9.66633 1.85548 8.32588 2.11059 7.03267C2.36569 5.73947 2.99539 4.55158 3.92003 3.61923C4.84468 2.68688 6.02275 2.05194 7.30526 1.79471C8.58778 1.53747 9.91715 1.66949 11.1253 2.17408C12.3334 2.67866 13.366 3.53315 14.0924 4.62947C14.8189 5.7258 15.2067 7.01473 15.2067 8.33328C15.2047 10.1008 14.5075 11.7953 13.268 13.0451C12.0285 14.2949 10.348 14.998 8.59512 14.9999Z" fill="white"/>
</svg>
