<svg width="100" height="101" viewBox="0 0 100 101" fill="none" xmlns="http://www.w3.org/2000/svg">
<path d="M91.25 0.994995C96.08 0.994995 100 4.915 100 9.745V24.96C99.9994 27.4718 99.3108 29.9355 98.0089 32.0837C96.707 34.2318 94.8415 35.9822 92.615 37.145L61.205 53.545C66.2368 56.0685 70.2697 60.2164 72.6508 65.3171C75.0319 70.4179 75.6219 76.1729 74.3252 81.6507C73.0286 87.1284 69.9212 92.0083 65.5061 95.5003C61.091 98.9923 55.6266 100.892 49.9975 100.892C44.3684 100.892 38.904 98.9923 34.4889 95.5003C30.0738 92.0083 26.9664 87.1284 25.6698 81.6507C24.3731 76.1729 24.9631 70.4179 27.3442 65.3171C29.7253 60.2164 33.7582 56.0685 38.79 53.545L7.39 37.15C5.1618 35.9875 3.29481 34.2366 1.99194 32.0874C0.68906 29.9383 0.000125949 27.4732 0 24.96V9.745C0 4.915 3.92 0.994995 8.75 0.994995H91.25ZM50 58.4C45.3587 58.4 40.9075 60.2437 37.6256 63.5256C34.3437 66.8075 32.5 71.2587 32.5 75.9C32.5 80.5413 34.3437 84.9925 37.6256 88.2744C40.9075 91.5562 45.3587 93.4 50 93.4C54.6413 93.4 59.0925 91.5562 62.3744 88.2744C65.6563 84.9925 67.5 80.5413 67.5 75.9C67.5 71.2587 65.6563 66.8075 62.3744 63.5256C59.0925 60.2437 54.6413 58.4 50 58.4ZM67.5 8.48999H32.5V41.8L49.42 50.64C49.599 50.7337 49.798 50.7827 50 50.7827C50.202 50.7827 50.401 50.7337 50.58 50.64L67.5 41.795V8.48999ZM25 8.48999L8.75 8.495C8.41848 8.495 8.10054 8.62669 7.86612 8.86111C7.6317 9.09553 7.5 9.41347 7.5 9.745V24.96C7.5 27.285 8.795 29.42 10.855 30.5L25 37.88V8.48999ZM91.25 8.495L75 8.48999V37.88L89.145 30.5C90.1569 29.9711 91.0046 29.1751 91.5961 28.1985C92.1876 27.2218 92.5002 26.1018 92.5 24.96V9.745C92.5 9.41347 92.3683 9.09553 92.1339 8.86111C91.8995 8.62669 91.5815 8.495 91.25 8.495Z" fill="#558203"/>
</svg>
