<svg width="19" height="10" viewBox="0 0 19 10" fill="none" xmlns="http://www.w3.org/2000/svg">
<path d="M0.832703 9.39539C0.95278 9.51646 1.09564 9.61255 1.25304 9.67813C1.41044 9.7437 1.57927 9.77747 1.74978 9.77747C1.9203 9.77747 2.08913 9.7437 2.24653 9.67813C2.40393 9.61255 2.54679 9.51646 2.66687 9.39539L8.5827 3.47957C8.70278 3.3585 8.84564 3.26241 9.00304 3.19683C9.16044 3.13126 9.32927 3.0975 9.49979 3.0975C9.6703 3.0975 9.83913 3.13126 9.99653 3.19683C10.1539 3.26241 10.2968 3.3585 10.4169 3.47957L16.3327 9.39539C16.4528 9.51646 16.5956 9.61255 16.753 9.67813C16.9104 9.7437 17.0793 9.77747 17.2498 9.77747C17.4203 9.77747 17.5891 9.7437 17.7465 9.67813C17.9039 9.61255 18.0468 9.51646 18.1669 9.39539C18.4074 9.15338 18.5425 8.82601 18.5425 8.48477C18.5425 8.14353 18.4074 7.81616 18.1669 7.57415L12.2381 1.6454C11.5116 0.919744 10.5267 0.512149 9.49979 0.512149C8.47291 0.512149 7.48802 0.919744 6.76145 1.6454L0.832703 7.57415C0.592127 7.81616 0.457092 8.14353 0.457092 8.48477C0.457092 8.82601 0.592127 9.15338 0.832703 9.39539Z" fill="black"/>
</svg>
