<svg width="26" height="25" viewBox="0 0 26 25" fill="none" xmlns="http://www.w3.org/2000/svg">
<path fill-rule="evenodd" clip-rule="evenodd" d="M21.8369 3.63333C19.4973 1.29167 16.3868 0.00104167 13.0732 0C6.24491 0 0.687494 5.55625 0.684369 12.3875C0.683327 14.5708 1.25417 16.7021 2.33857 18.5812L0.5802 25L7.14701 23.2771C8.95642 24.2646 10.994 24.7844 13.0669 24.7854H13.0721C19.8994 24.7854 25.4578 19.2281 25.4609 12.3969C25.463 9.0875 24.1755 5.97396 21.8369 3.63333ZM13.0732 22.6927H13.069C11.2211 22.6927 9.40956 22.1958 7.82827 21.2573L7.45222 21.0344L3.55526 22.0562L4.59591 18.2562L4.35112 17.8667C3.31984 16.2271 2.77608 14.3323 2.77712 12.3875C2.77921 6.71042 7.3991 2.09167 13.0784 2.09167C15.8284 2.09167 18.4139 3.16458 20.3577 5.11042C22.3015 7.05729 23.3713 9.64375 23.3703 12.3948C23.3672 18.074 18.7483 22.6927 13.0732 22.6927ZM18.7212 14.9812C18.4118 14.826 16.8899 14.0771 16.6055 13.974C16.3222 13.8708 16.116 13.8187 15.9087 14.1281C15.7014 14.4375 15.1097 15.1354 14.9284 15.3427C14.7482 15.549 14.567 15.575 14.2576 15.4198C13.9482 15.2646 12.9503 14.9385 11.7679 13.8833C10.8481 13.0625 10.2262 12.049 10.046 11.7385C9.86582 11.4281 10.0273 11.2615 10.1815 11.1073C10.321 10.9687 10.4908 10.7458 10.646 10.5646C10.8023 10.3854 10.8533 10.2562 10.9575 10.049C11.0606 9.84271 11.0096 9.66146 10.9315 9.50625C10.8533 9.35208 10.2346 7.82812 9.97728 7.20833C9.72623 6.60417 9.47102 6.68646 9.28039 6.67708C9.10018 6.66771 8.89392 6.66666 8.68663 6.66666C8.48037 6.66666 8.14495 6.74375 7.86161 7.05416C7.57827 7.36458 6.77825 8.11354 6.77825 9.63646C6.77825 11.1604 7.88765 12.6323 8.04182 12.8385C8.19599 13.0448 10.2242 16.1719 13.3294 17.5125C14.068 17.8312 14.6451 18.0219 15.0941 18.1646C15.8357 18.4 16.5108 18.3667 17.0441 18.2875C17.6389 18.199 18.8754 17.5385 19.1337 16.8156C19.3921 16.0927 19.3921 15.4719 19.3139 15.3437C19.2369 15.2135 19.0306 15.1365 18.7212 14.9812Z" fill="black"/>
</svg>
