<svg width="45" height="45" viewBox="0 0 45 45" fill="none" xmlns="http://www.w3.org/2000/svg">
<circle cx="22.5" cy="22.5" r="22.5" fill="#46B14B"/>
<path d="M19.5375 7.00008C19.702 6.99913 19.8651 7.03066 20.0174 7.09287C20.1697 7.15507 20.3082 7.24673 20.425 7.36258L30.6375 17.5751C31.2195 18.1556 31.6813 18.8453 31.9964 19.6046C32.3114 20.3639 32.4736 21.178 32.4736 22C32.4736 22.8221 32.3114 23.6361 31.9964 24.3955C31.6813 25.1548 31.2195 25.8445 30.6375 26.425L20.425 36.6375C20.3085 36.7541 20.1701 36.8465 20.0178 36.9096C19.8655 36.9727 19.7023 37.0051 19.5375 37.0051C19.3727 37.0051 19.2095 36.9727 19.0572 36.9096C18.9049 36.8465 18.7666 36.7541 18.65 36.6375C18.5335 36.521 18.441 36.3826 18.3779 36.2303C18.3149 36.078 18.2824 35.9148 18.2824 35.75C18.2824 35.5852 18.3149 35.422 18.3779 35.2697C18.441 35.1174 18.5335 34.9791 18.65 34.8625L28.8625 24.65C29.5647 23.9469 29.9592 22.9938 29.9592 22C29.9592 21.0063 29.5647 20.0532 28.8625 19.3501L18.65 9.13758C18.5329 9.02137 18.4399 8.88312 18.3764 8.7308C18.3129 8.57847 18.2803 8.41509 18.2803 8.25008C18.2803 8.08506 18.3129 7.92168 18.3764 7.76936C18.4399 7.61703 18.5329 7.47878 18.65 7.36258C18.7668 7.24673 18.9053 7.15507 19.0576 7.09287C19.2099 7.03066 19.373 6.99913 19.5375 7.00008Z" fill="white"/>
</svg>
