<svg width="45" height="45" viewBox="0 0 45 45" fill="none" xmlns="http://www.w3.org/2000/svg">
<circle cx="22.5" cy="22.5" r="22.5" fill="#46B14B"/>
<path d="M26.4625 37C26.298 37.0009 26.1349 36.9694 25.9826 36.9072C25.8303 36.845 25.6918 36.7533 25.575 36.6375L15.3625 26.425C14.7804 25.8444 14.3187 25.1547 14.0036 24.3954C13.6885 23.6361 13.5263 22.8221 13.5263 22C13.5263 21.1779 13.6885 20.3639 14.0036 19.6046C14.3187 18.8452 14.7804 18.1556 15.3625 17.575L25.575 7.36249C25.6915 7.24594 25.8299 7.15349 25.9822 7.09041C26.1344 7.02734 26.2977 6.99487 26.4625 6.99487C26.6273 6.99487 26.7905 7.02734 26.9428 7.09041C27.0951 7.15349 27.2334 7.24594 27.35 7.36249C27.4665 7.47904 27.559 7.6174 27.6221 7.76968C27.6851 7.92195 27.7176 8.08516 27.7176 8.24999C27.7176 8.41481 27.6851 8.57802 27.6221 8.7303C27.559 8.88258 27.4665 9.02094 27.35 9.13749L17.1375 19.35C16.4352 20.0531 16.0408 21.0062 16.0408 22C16.0408 22.9937 16.4352 23.9469 17.1375 24.65L27.35 34.8625C27.4671 34.9787 27.5601 35.1169 27.6236 35.2693C27.6871 35.4216 27.7197 35.585 27.7197 35.75C27.7197 35.915 27.6871 36.0784 27.6236 36.2307C27.5601 36.383 27.4671 36.5213 27.35 36.6375C27.2332 36.7533 27.0947 36.845 26.9424 36.9072C26.7901 36.9694 26.627 37.0009 26.4625 37Z" fill="white"/>
</svg>
