<svg width="25" height="25" viewBox="0 0 25 25" fill="none" xmlns="http://www.w3.org/2000/svg">
<path d="M12.4997 2.25208C15.8372 2.25208 16.2331 2.26458 17.5508 2.325C18.9134 2.3875 20.3165 2.69792 21.3092 3.69062C22.3113 4.69271 22.6124 6.08229 22.6749 7.44896C22.7353 8.76667 22.7478 9.1625 22.7478 12.5C22.7478 15.8375 22.7353 16.2333 22.6749 17.551C22.6134 18.9062 22.2957 20.3229 21.3092 21.3094C20.3071 22.3115 18.9186 22.6125 17.5508 22.675C16.2331 22.7354 15.8372 22.7479 12.4997 22.7479C9.16209 22.7479 8.76625 22.7354 7.44851 22.675C6.10369 22.6135 4.66824 22.2885 3.6901 21.3094C2.6932 20.3125 2.38694 18.9094 2.32444 17.551C2.26402 16.2333 2.25152 15.8375 2.25152 12.5C2.25152 9.1625 2.26402 8.76667 2.32444 7.44896C2.3859 6.09896 2.70674 4.67396 3.6901 3.69062C4.69012 2.69062 6.08494 2.3875 7.44851 2.325C8.76625 2.26458 9.16209 2.25208 12.4997 2.25208ZM12.4997 0C9.1048 0 8.67875 0.0145833 7.34539 0.075C5.41305 0.163542 3.49426 0.701042 2.09735 2.09792C0.695238 3.5 0.162935 5.41458 0.0743913 7.34583C0.0139733 8.67917 -0.000610352 9.10521 -0.000610352 12.5C-0.000610352 15.8948 0.0139733 16.3208 0.0743913 17.6542C0.162935 19.5844 0.70253 21.5083 2.09735 22.9021C3.49843 24.3031 5.41618 24.8365 7.34539 24.925C8.67875 24.9854 9.1048 25 12.4997 25C15.8945 25 16.3206 24.9854 17.6539 24.925C19.5852 24.8365 21.5061 24.2979 22.902 22.9021C24.3051 21.499 24.8364 19.5854 24.9249 17.6542C24.9854 16.3208 24.9999 15.8948 24.9999 12.5C24.9999 9.10521 24.9854 8.67917 24.9249 7.34583C24.8364 5.41354 24.2978 3.49375 22.902 2.09792C21.503 0.698958 19.58 0.1625 17.6539 0.075C16.3206 0.0145833 15.8945 0 12.4997 0Z" fill="black"/>
<path d="M12.4997 6.08124C8.95483 6.08124 6.08081 8.95519 6.08081 12.5C6.08081 16.0448 8.95483 18.9187 12.4997 18.9187C16.0446 18.9187 18.9186 16.0448 18.9186 12.5C18.9186 8.95519 16.0446 6.08124 12.4997 6.08124ZM12.4997 16.6666C10.1986 16.6666 8.33294 14.801 8.33294 12.5C8.33294 10.1989 10.1986 8.33332 12.4997 8.33332C14.8008 8.33332 16.6664 10.1989 16.6664 12.5C16.6664 14.801 14.8008 16.6666 12.4997 16.6666Z" fill="black"/>
<path d="M19.1728 7.32709C20.0012 7.32709 20.6728 6.65551 20.6728 5.82709C20.6728 4.99866 20.0012 4.32709 19.1728 4.32709C18.3443 4.32709 17.6727 4.99866 17.6727 5.82709C17.6727 6.65551 18.3443 7.32709 19.1728 7.32709Z" fill="black"/>
</svg>
