<svg width="45" height="36" viewBox="0 0 45 36" fill="none" xmlns="http://www.w3.org/2000/svg">
<path d="M42.4638 0.8125H1.70298C0.835831 0.8125 0.135254 1.51074 0.135254 2.375V33.625C0.135254 34.4893 0.835831 35.1875 1.70298 35.1875H42.4638C43.331 35.1875 44.0316 34.4893 44.0316 33.625V2.375C44.0316 1.51074 43.331 0.8125 42.4638 0.8125ZM40.5042 6.22266V31.6719H3.66264V6.22266L2.31047 5.17285L4.23584 2.70703L6.33267 4.33301H37.8391L39.9359 2.70703L41.8613 5.17285L40.5042 6.22266ZM37.8391 4.32812L22.0834 16.5352L6.32777 4.32812L4.23094 2.70215L2.30557 5.16797L3.65774 6.21777L20.3932 19.1865C20.8745 19.5592 21.4666 19.7615 22.0761 19.7615C22.6855 19.7615 23.2776 19.5592 23.7589 19.1865L40.5042 6.22266L41.8564 5.17285L39.931 2.70703L37.8391 4.32812Z" fill="#558203"/>
</svg>
