<svg width="110" height="110" viewBox="0 0 110 110" fill="none" xmlns="http://www.w3.org/2000/svg">
<path d="M100.079 35.7275C106.009 29.7975 108.692 18.9144 109.903 10.838C110.113 9.37862 109.981 7.89023 109.515 6.49107C109.05 5.09192 108.265 3.82053 107.222 2.77789C106.179 1.73525 104.908 0.950073 103.509 0.484718C102.11 0.0193623 100.621 -0.113353 99.162 0.0971104C90.0629 1.61515 77.6067 4.27974 72.2638 12.5349C62.3254 -4.77804 50.1215 9.67314 46.6222 23.6153C36.0097 20.6571 31.3455 32.8703 28.2773 41.9601C17.0044 38.1536 9.55637 56.3517 9.12526 66.4873C9.4236 73.9008 12.0722 81.0273 16.6879 86.8363L1.28741 102.228C0.45199 103.093 -0.010276 104.251 0.000173371 105.454C0.0106227 106.656 0.492951 107.806 1.34327 108.657C2.1936 109.507 3.34388 109.989 4.54637 110C5.74886 110.01 6.90735 109.548 7.77232 108.713L23.1637 93.3212C28.9756 97.938 36.1054 100.587 43.5219 100.884C53.4649 100.522 72.1904 92.7938 68.1545 81.7089C76.983 78.7095 89.751 73.7381 86.4994 63.364C100.483 59.7226 114.984 47.6975 97.4513 37.7316C98.403 37.1692 99.285 36.4965 100.079 35.7275ZM80.7529 16.4011C86.6056 12.1299 93.6081 9.71849 100.85 9.48052C97.887 26.711 94.938 33.627 78.0516 31.953C77.6205 26.179 78.1525 19.0061 80.7529 16.4011ZM61.8301 13.7457C67.008 19.318 71.6309 31.3981 66.21 37.3372L59.2206 44.3037C58.4899 40.212 57.0578 36.2772 54.9875 32.673C54.8214 25.7303 57.2628 18.9772 61.8301 13.7457ZM43.4852 32.0906C48.6585 37.6629 53.2814 49.7384 47.8605 55.6821L40.8757 62.6486C40.1443 58.557 38.7123 54.6224 36.6426 51.0179C36.4743 44.0748 38.9159 37.321 43.4852 32.0906ZM25.1403 50.4355C30.309 56.0032 34.9365 68.0833 29.5202 74.0224L23.2508 80.2689C19.8966 75.912 18.2387 70.4853 18.5855 64.9978C18.9322 59.5104 21.2599 54.3355 25.1358 50.4355H25.1403ZM43.5219 91.7115C38.5378 91.4633 33.7404 89.7374 29.7403 86.7538L36.0005 80.4936C41.9626 75.0635 54.0198 79.7231 59.6012 84.7955C55.1052 88.7392 49.477 91.16 43.5219 91.7115ZM61.8668 73.3666C61.2523 73.3666 59.3306 73.3161 58.9729 73.3666C55.3742 71.2996 51.4458 69.8692 47.3606 69.1381L54.35 62.1533C60.2846 56.7232 72.3647 61.3874 77.9461 66.4552C73.4495 70.3973 67.8214 72.8164 61.8668 73.3666ZM80.2117 55.0217C79.5971 55.0217 77.6755 54.9758 77.3224 55.0217C73.7223 52.9532 69.7924 51.5212 65.7055 50.7886L72.6949 43.8038C78.6294 38.3783 90.7096 43.0379 96.291 48.1057C91.795 52.0495 86.1668 54.4702 80.2117 55.0217Z" fill="#558203"/>
</svg>
