<svg width="82" height="110" viewBox="0 0 82 110" fill="none" xmlns="http://www.w3.org/2000/svg">
<path d="M54.6667 0H13.6667V50.4167H0V59.5833H13.6667V73.3333H0V82.5H13.6667V110H22.7778V82.5H63.7778V73.3333H22.7778V59.5833H54.6667C61.9133 59.5748 68.8608 56.6748 73.9849 51.5194C79.1091 46.364 81.9916 39.3742 82 32.0833V27.5C81.9916 20.2092 79.1091 13.2194 73.9849 8.06394C68.8608 2.90853 61.9133 0.00849114 54.6667 0ZM72.8889 32.0833C72.8829 36.9438 70.9611 41.6034 67.5451 45.0403C64.129 48.4771 59.4976 50.4106 54.6667 50.4167H22.7778V9.16667H54.6667C59.4976 9.17273 64.129 11.1062 67.5451 14.5431C70.9611 17.9799 72.8829 22.6396 72.8889 27.5V32.0833Z" fill="#558203"/>
</svg>
