<svg width="512" height="512" viewBox="0 0 512 512" fill="none" xmlns="http://www.w3.org/2000/svg">
<g clip-path="url(#clip0_515_134)">
<path d="M91.875 277L419.125 277C427.34 277 434 267.598 434 256C434 244.402 427.34 235 419.125 235L91.875 235C83.6598 235 77 244.402 77 256C77 267.598 83.6598 277 91.875 277Z" fill="black"/>
<path d="M151.458 427L359.542 427C364.765 427 369 417.374 369 405.5C369 393.626 364.765 384 359.542 384L151.458 384C146.235 384 142 393.626 142 405.5C142 417.374 146.235 427 151.458 427Z" fill="black"/>
<path d="M21.3333 128L490.667 128C502.449 128 512 118.449 512 106.667C512 94.8846 502.449 85.3333 490.667 85.3333L21.3333 85.3333C9.55124 85.3333 0 94.8846 0 106.667C0 118.449 9.55124 128 21.3333 128Z" fill="black"/>
</g>
<defs>
<clipPath id="clip0_515_134">
<rect width="512" height="512" fill="white" transform="translate(512 512) rotate(-180)"/>
</clipPath>
</defs>
</svg>
