<svg width="512" height="512" viewBox="0 0 512 512" fill="none" xmlns="http://www.w3.org/2000/svg">
<g clip-path="url(#clip0_515_134)">
<path d="M420.125 235H92.875C84.6598 235 78 244.402 78 256C78 267.598 84.6598 277 92.875 277H420.125C428.34 277 435 267.598 435 256C435 244.402 428.34 235 420.125 235Z" fill="black"/>
<path d="M360.542 85H152.458C147.235 85 143 94.6259 143 106.5C143 118.374 147.235 128 152.458 128H360.542C365.765 128 370 118.374 370 106.5C370 94.6259 365.765 85 360.542 85Z" fill="black"/>
<path d="M490.667 384H21.3333C9.55126 384 0 393.551 0 405.333C0 417.115 9.55126 426.667 21.3333 426.667H490.667C502.449 426.667 512 417.115 512 405.333C512 393.551 502.449 384 490.667 384Z" fill="black"/>
</g>
<defs>
<clipPath id="clip0_515_134">
<rect width="512" height="512" fill="white"/>
</clipPath>
</defs>
</svg>
