<svg width="512" height="512" viewBox="0 0 512 512" fill="none" xmlns="http://www.w3.org/2000/svg">
<g clip-path="url(#clip0_515_134)">
<path d="M235 169.875L235 497.125C235 505.34 244.402 512 256 512C267.598 512 277 505.34 277 497.125L277 169.875C277 161.66 267.598 155 256 155C244.402 155 235 161.66 235 169.875Z" fill="black"/>
<path d="M85 294.458L85 502.542C85 507.765 94.6259 512 106.5 512C118.374 512 128 507.765 128 502.542L128 294.458C128 289.235 118.374 285 106.5 285C94.6259 285 85 289.235 85 294.458Z" fill="black"/>
<path d="M384.167 21.5001L384.167 490.833C384.167 502.615 393.718 512.167 405.5 512.167C417.282 512.167 426.833 502.615 426.833 490.833L426.833 21.5001C426.833 9.71799 417.282 0.166749 405.5 0.166749C393.718 0.166748 384.167 9.71799 384.167 21.5001Z" fill="black"/>
</g>
<defs>
<clipPath id="clip0_515_134">
<rect width="512" height="512" fill="white" transform="translate(512 512) rotate(-180)"/>
</clipPath>
</defs>
</svg>
